<?xml version="1.0" standalone="no"?>
<svg width="512" height="512" viewBox="0 0 512 512" version="1.1" xml:space="preserve" xmlns="http://www.w3.org/2000/svg" xmlns:xlink="http://www.w3.org/1999/xlink">

<style type="text/css" style="fill: rgb(0, 119, 182);">
	.st0{fill:#333333;}
	.st1{fill:none;stroke:#333333;stroke-width:32;stroke-linecap:round;stroke-linejoin:round;stroke-miterlimit:10;}
</style>

<g id="Layer_1" style="fill: rgb(0, 119, 182);"/>

<g id="Layer_2" style="fill: rgb(0, 119, 182);">

<g style="fill: rgb(0, 119, 182);">

<path class="st0" d="M256,65.51c-117.36,0-212.5,69.46-212.5,155.14c0,49.74,32.07,94,81.92,122.39    c11.15,6.35,16.68,19.31,13.42,31.72c-7.04,26.74-17.58,55.34-32.56,70.32c0,0,67.51,15.88,127.62-58.91    c5.34-6.64,13.45-10.38,21.96-10.38c0.05,0,0.09,0,0.14,0c117.36,0,212.5-69.46,212.5-155.14S373.36,65.51,256,65.51z     M141.8,253.08c-17.91,0-32.43-14.52-32.43-32.43s14.52-32.43,32.43-32.43c17.91,0,32.43,14.52,32.43,32.43    S159.71,253.08,141.8,253.08z M256,253.08c-17.91,0-32.43-14.52-32.43-32.43s14.52-32.43,32.43-32.43s32.43,14.52,32.43,32.43    S273.91,253.08,256,253.08z M370.2,253.08c-17.91,0-32.43-14.52-32.43-32.43s14.52-32.43,32.43-32.43    c17.91,0,32.43,14.52,32.43,32.43S388.11,253.08,370.2,253.08z" style="fill: rgb(0, 119, 182);"/>

</g>

</g>

</svg>