<svg width="34" height="32" viewBox="0 0 34 32" fill="none" xmlns="http://www.w3.org/2000/svg">
<path d="M29.2559 0C31.3075 0.00012896 32.9737 1.68557 32.9775 3.76465L33.0225 28.2354C33.0262 30.3145 31.3662 32 29.3145 32H4.74512C2.69337 32 1.02635 30.3145 1.02247 28.2354L1.01856 25.8818H4.26954C5.03871 25.8816 5.66054 25.2502 5.65919 24.4707C5.65775 23.691 5.0331 23.0586 4.26368 23.0586H1.01368L1.00782 20.2354H4.2588C5.02817 20.2353 5.65086 19.6029 5.64942 18.8232C5.64785 18.0438 5.02306 17.4123 4.25391 17.4121H1.00294L0.998053 14.5879H4.24805C5.01737 14.5879 5.63995 13.9563 5.63868 13.1768C5.63724 12.3971 5.01256 11.7647 4.24317 11.7646H0.992194L0.987311 8.94141H4.23829C5.00753 8.94119 5.63035 8.30886 5.62891 7.5293C5.62742 6.74965 5.00181 6.11719 4.23243 6.11719H0.982428L0.977546 3.76465C0.973742 1.68557 2.6339 0.000139198 4.68555 0H29.2559ZM18.4326 6C17.0114 6.00005 15.7698 6.24712 14.708 6.74121C13.6462 7.23535 12.8182 7.92438 12.2246 8.80859C11.631 9.68415 11.334 10.7117 11.334 11.8906C11.334 14.6561 13.1659 16.4508 16.8281 17.2744L18.7969 17.7168C19.9841 17.9855 20.8371 18.315 21.3555 18.7051C21.8821 19.0952 22.1455 19.6025 22.1455 20.2266C22.1454 20.9807 21.8191 21.5834 21.167 22.0342C20.5149 22.4848 19.6539 22.7099 18.584 22.71C17.3885 22.71 16.4473 22.4156 15.7617 21.8262C15.0761 21.228 14.7204 20.3954 14.6953 19.3291H10.9707C10.9707 21.4356 11.6356 23.0738 12.9648 24.2441C14.3026 25.4145 16.1673 26 18.5586 26C20.8579 26 22.6682 25.4627 23.9893 24.3877C25.3103 23.304 25.9707 21.8297 25.9707 19.9658C25.9706 18.5096 25.5061 17.3433 24.5781 16.4678C23.6584 15.5837 22.2035 14.9206 20.2139 14.4785L18.4209 14.0752C17.2754 13.8151 16.4519 13.5028 15.9502 13.1387C15.4485 12.7746 15.1973 12.2935 15.1973 11.6953C15.1974 10.9933 15.4987 10.4165 16.1006 9.96582C16.7108 9.51524 17.4925 9.29009 18.4453 9.29004C19.4487 9.29004 20.2602 9.55419 20.8789 10.083C21.4976 10.6118 21.8403 11.3359 21.9072 12.2549H25.5195C25.461 10.3043 24.8006 8.77372 23.5381 7.66406C22.2839 6.5544 20.5814 6 18.4326 6Z" fill="#7D52F4"/>
</svg>
